<svg width="1245" height="231" viewBox="0 0 1245 231" fill="none" xmlns="http://www.w3.org/2000/svg">
<path fill-rule="evenodd" clip-rule="evenodd" d="M1245 144.454V57.909H1166.78V173.091L1089.37 173.091V202.364H1011.15V57.909H933.75L855.526 57.909V115.818L778.125 115.818V57.909H699.901V231L622.5 231V202.364H544.276V115.818L466.875 115.818V86.545L388.651 86.545V173.091H311.25V231H233.026V202.364L155.625 202.364V28.636H77.4008V115.818L-2.71797e-05 115.818V0H77.4008H155.625L233.026 0H311.25H388.651L466.875 0H544.276H622.5L699.901 0H778.125H855.526L933.75 0H1011.15H1089.37L1166.78 0H1245V144.454Z" fill="white"/>
</svg>
