<svg width="1512" height="231" viewBox="0 0 1512 231" fill="none" xmlns="http://www.w3.org/2000/svg">
<path fill-rule="evenodd" clip-rule="evenodd" d="M0 86.5455V173.091H95V57.9091H189V28.6364H284V173.091H378V173.091H473V115.182H567V173.091H662V0H756V28.6364H851V115.182H945V144.455H1040V57.9091H1134V0H1229V28.6364H1323V202.364H1418V115.182H1512V231H1418V231H1323V231H1229V231H1134V231H1040V231H945V231H851V231H756V231H662V231H567V231H473V231H378V231H284V231H189V231H95V231H0V231V86.5455Z" fill="white"/>
</svg>
